<?xml version="1.0" encoding="UTF-8"?>
<svg id="Layer_2" data-name="Layer 2" xmlns="http://www.w3.org/2000/svg" xmlns:xlink="http://www.w3.org/1999/xlink" viewBox="0 0 264.75 345.05">
  <defs>
    <linearGradient id="linear-gradient" x1="130.34" y1="463.75" x2="130.34" y2="448.9" gradientTransform="translate(0 717.17) scale(1 -1)" gradientUnits="userSpaceOnUse">
      <stop offset="0" stop-color="#e88958"/>
      <stop offset=".34" stop-color="#f39d61"/>
      <stop offset=".69" stop-color="#fcab68"/>
      <stop offset="1" stop-color="#ffb06b"/>
    </linearGradient>
  </defs>
  <g id="Layer_1-2" data-name="Layer 1">
    <g id="Frame">
      <g id="Group">
        <g id="avatars">
          <g id="Group_152" data-name="Group 152">
            <g id="Group_153" data-name="Group 153">
              <g id="Group_154" data-name="Group 154">
                <path id="Vector_883" data-name="Vector 883" d="M81.74,310.3c-1.49,6.71-3.04,13.59-5.33,20.24l19.49,6.77c2.7-7.8,4.48-15.65,6.03-22.54,2.29-10.21,4.58-20.7,8.6-22.77l-9.35-18.41c-12.67,6.42-15.94,21.1-19.38,36.64l-.06.06Z" style="fill: #8d573e;"/>
                <path id="Vector_884" data-name="Vector 884" d="M78.13,331.12c-1.84,5.33-4.08,9.92-6.6,13.93h19.27c1.2-2.64,2.41-5.39,3.44-8.32l-16.11-5.62Z" style="fill: #ffbc82;"/>
              </g>
              <g id="Group_155" data-name="Group 155">
                <path id="Vector_885" data-name="Vector 885" d="M162.54,273.6l-9.34,18.41c4.01,2.01,6.36,12.56,8.6,22.77,1.55,6.94,3.27,14.8,6.02,22.54l19.5-6.77c-2.29-6.65-3.84-13.59-5.33-20.24-3.45-15.54-6.71-30.22-19.39-36.64l-.06-.06Z" style="fill: #8d573e;"/>
                <path id="Vector_886" data-name="Vector 886" d="M169.54,336.74c1.03,2.98,2.18,5.68,3.44,8.32h19.27c-2.58-4.01-4.76-8.6-6.59-13.93l-16.12,5.62Z" style="fill: #ffbc82;"/>
              </g>
              <g id="Group_156" data-name="Group 156">
                <path id="Vector_887" data-name="Vector 887" d="M167.07,312.83c6.2-23.17,6.89-37.16-7.39-41.86-13.94-4.59-39.57-6.08-54.83.4-12.16,5.22-16.06,13.65-7.74,39.28,4.64,14.39,6.77,25.23,6.54,34.41h57.75c-.18-7.8,1.26-15.54,5.73-32.23h-.06Z" style="fill: #8d573e;"/>
                <path id="Vector_888" data-name="Vector 888" d="M148.44,247.05c1.2-20.47-34.18-21.22-34.13,1.09,0,9.92.75,17.43-1.32,20.64-11.12,17.38,43.82,16.4,35.27,1.03-2.98-5.33-.34-13.76.18-22.82v.06Z" style="fill: url(#linear-gradient);"/>
                <path id="Vector_889" data-name="Vector 889" d="M146.43,295.85c-10.04,3.55-22.2,2.06-32.52-.52-5.91-1.49-9.23,5.22-7.4,10.95,2.41,7.57,14.69,9.58,25.35,9.4,21.11-.34,29.02-8.14,25.41-17.49-.98-2.52-5.45-4.24-10.9-2.35h.06Z" style="fill: #a1664c;"/>
              </g>
              <g id="Group_157" data-name="Group 157">
                <path id="Vector_890" data-name="Vector 890" d="M251.03,110.06c-7.45-6.48-12.15-10.44-12.84-20.36-.75-10.38,1.26-21.96-3.5-31.65-4.3-8.72-14.28-10.55-22.37-14.45-9.17-4.36-13.13-11.07-18.46-19.33-10.15-15.71-31.26-19.55-48.06-11.7C144.14,3.97,132.95.36,121.14.01c-12.33-.34-26.33,5.68-36.19,12.96-11.64,8.54-20.01,20.36-30.68,30.05C33.62,61.66-10.31,82.65,2.2,118.14c4.58,12.96,12.73,16.63,5.27,30.74-6.94,13.07-10.55,20.36.35,32.23,4.24,4.65,8.83,6.88,9,13.71.17,6.25-5.51,11.7-5.16,18.18.8,13.88,11.41,23.8,24.72,32,16.74,10.27,37.79,17.72,49.03,26.61,19.9,15.71,30.34-12.1,46.34-12.67,8.37-.29,12.38,7.68,23.22,16.34,16.98,13.59,41.58,27.87,55.17,6.59-5.73-.17-10.78-2.64-15.02-6.42,22.25.34,42.49-6.94,40.83-32.63-.63-9.75-4.41-13.48,2.81-21.28,6.77-7.34,21.39-7.74,22.08-20.53.63-11.58-13.53-14.11-16.06-23.57-2.69-9.86,5.97-14.05,11.19-21.16,13.47-18.12,11.12-32.34-4.94-46.28v.06Z" style="fill: #261b18;"/>
                <path id="Vector_891" data-name="Vector 891" d="M120.91,50.13c-46.11,7.68-79.66,69.67-72.26,128.45,5.45,43.64,44.73,90.66,92.1,87.85,57.01-3.38,85.8-66.92,79.95-118.76-6.66-58.89-35.16-108.32-99.73-97.54h-.06Z" style="fill: #ffbc82;"/>
                <path id="Vector_892" data-name="Vector 892" d="M217.49,99.79c-2.59-12.73-11.76-26.78-24.32-32.06-16.75-7-44.79-21.22-62.8-15.31-21.33,7-41.29,21.68-56.66,37.73-19.61,20.47-33.95,68.13-18.75,93.82,3.27-4.47,3.61-11.3,5.62-16.63,7.34-19.44,28.73-30.85,43.81-44.1,4.53,10.61,13.71,12.44,23.74,14.62-2.06-6.54-1.03-13.13,1.67-19.1,1.49-3.27,3.44-6.31,5.73-9.12,2.47-3.04,18.53-16.17,15.95-20.3,7.97,12.79,23.16,20.76,36.36,26.89,17.03,7.91,20.81,20.07,28.78,36.24-1.77-3.61,3.1-19.9,3.1-24.94,0-9.06-.34-18.87-2.12-27.81l-.11.06Z" style="fill: #bc551e; isolation: isolate; opacity: .3;"/>
                <path id="Vector_893" data-name="Vector 893" d="M226.78,93.37c-2.3-11.07-18.41-22.54-24.78-32.34-7.97-12.39-17.49-23.57-30.57-30.68-22.59-12.39-50.75-11.58-75.7-7.74-29.48,4.53-52.7,29.88-63.89,55.34-12.73,28.9-14.56,56.83-10.09,97.54,2.35,21.1,5.16,48.34,17.03,66.52,3.67,5.56,13.37,11.3,9.52,19.27-4.99,10.49-14.79-2.35-13.13-4.36-.46.57-1.78,2.35-2.18,3.1.29,6.14,1.67,11.47,6.08,16,14.4,14.62,32.63,5.28,39.46-11.53,9.12-22.36-11.19-33.89-16.98-53.96-6.31-21.9-7.57-41.75,6.08-61.01,12.79-18.12,22.42-32.69,43.36-42.66-6.14,13.02,5.73,34.52,21.79,28.04-13.48-4.88-9.41-16.8-2.93-25.98,2.3-3.27,24.44-26.26,20.88-29.88,8.6,8.66,18.12,17.2,28.62,23.57,10.15,6.19,19.84,8.49,26.95,18.64,3.67,5.22,6.37,11.07,8.15,17.15,1.37,4.53.4,12.39,2.81,16.23,6.65,10.38,20.7.57,22.25-8.49,2.12-12.27-6.02-18.64-11.19-28.73-4.7-9.29.18-14.97-1.66-23.97l.12-.06Z" style="fill: #261b18;"/>
                <path id="Vector_894" data-name="Vector 894" d="M205.04,51.85c-14.8-6.02-17.78-21.62-29.08-30.79-9.92-8.09-25.98-4.82-33.95,4.3-4.3-13.19-18.29-15.77-26.66-14.85-8.61.92-16.23,7.97-21.85,14.62-11.76,13.88-22.54,21.96-38.2,31.2-13.36,7.91-31.48,21.56-32.23,38.54-.29,6.54,3.79,23.8,9.92,27.41,7.06,4.24,16.35,1.72,23.69-.23,20.93-5.51,49.6-22.82,69.22-47.77-3.04,15.6-3.16,28.44-3.27,34.12,3.96-7.51,10.44-13.59,14.34-21.22,2.63-5.16,3.55-10.78,4.81-16.34,1.38-5.91,4.36-9.98,7.4-15.25,7.97,14.22,17.78,29.59,35.1,32.74,5.85,1.09,11.93,0,17.72,1.09,5.45,1.03,8.72,4.07,13.31,6.71,11.47,6.48,13.19-11.01,13.87-19.96,1.38-18.29-10.38-18.75-24.14-24.37v.06Z" style="fill: #57443a;"/>
                <path id="Vector_895" data-name="Vector 895" d="M36.15,197.91c-2.81,0-4.88.74-6.37,1.83-6.42,4.99-10.72,34,22.77,32.17-2.41-3.44-4.59-7.86-4.93-12.1-.46-6.54-.92-22.08-11.53-21.9h.06Z" style="fill: #57443a;"/>
                <path id="Vector_896" data-name="Vector 896" d="M232.22,114.01c-1.77.4-3.67,1.55-5.44,3.73-6.89,8.09,4.81,18.29,9.57,22.82,3.1,2.92,5.11,7.45,6.25,11.53,22.71-24.71-2.4-39.85-10.32-38.08h-.06Z" style="fill: #57443a;"/>
                <path id="Vector_897" data-name="Vector 897" d="M210.55,242.29c-.81,7.4,4.35,13.36-.52,21.22,8.89-1.09,20.01-10.55,17.43-21.56-3.04-13.02-16.05-7-16.91.34Z" style="fill: #57443a;"/>
                <path id="Vector_898" data-name="Vector 898" d="M23.64,157.6c-5.85,9.63,1.78,22.13,9.87,25.92-2.18-9,4.59-13.02,6.08-20.3,1.49-7.23-9.01-17.03-15.95-5.56v-.06Z" style="fill: #57443a;"/>
                <path id="Vector_899" data-name="Vector 899" d="M233.2,191.77c-3.79,6.42-1.49,13.93-9.12,19.15,8.55,2.58,22.6-1.49,24.72-12.56,2.52-13.13-11.87-12.9-15.6-6.59Z" style="fill: #57443a;"/>
              </g>
              <g id="Group_158" data-name="Group 158">
                <g id="Group_159" data-name="Group 159">
                  <path id="Vector_900" data-name="Vector 900" d="M93.21,199.57c24.43,35.04,38.82,41.06,56.72,41.29,22.42.29,29.36-14.85,32.23-26.09,1.2-4.76,11.98-17.32,16.23-20.3-13.77,3.84-27.59,2.75-48.52,4.42-17.38,1.32-42.61,7.51-56.66.69Z" style="fill: #ff3b3b;"/>
                  <path id="Vector_901" data-name="Vector 901" d="M104.05,205.36s14.79,23.63,42.61,22.94c17.83-.46,29.3-6.71,32.23-15.08,3.21-9.17,10.67-12.73,10.67-12.73-48.01,13.82-85.51,4.87-85.51,4.87Z" style="fill: #a80a0a;"/>
                  <path id="Vector_902" data-name="Vector 902" d="M114.43,207.08s1.14,7.28,11.18,9.69c12.85,3.04,26.5,2.64,40.55-.12,9.46-1.89,13.59-13.59,13.59-13.59,0,0-26.84,7.57-65.32,4.01Z" style="fill: #fff9f0;"/>
                  <path id="Vector_903" data-name="Vector 903" d="M153.31,218.21c-12.67,1.03-23.28.69-29.82-3.04-4.65-2.64-4.93.46-3.9,2.29,0,0,4.53,9.86,25.75,11.24,20.36,1.32,30.34-11.18,27.93-13.13-2.41-1.95-8.2,1.72-19.96,2.64Z" style="fill: #fff9f0;"/>
                  <path id="Vector_904" data-name="Vector 904" d="M114.43,207.08s.86,3.38,2.75,5.05c0,0,47.37-6.08,58.96-2.52,0,0,3.15-4.19,3.61-6.6,0,0-32.98,7.51-65.32,4.01v.06Z" style="fill: #e8dac5;"/>
                  <path id="Vector_905" data-name="Vector 905" d="M127.33,216.49c17.49,9.29,37.57-.11,37.57-.11-21.28,5.73-37.57.11-37.57.11Z" style="fill: #e8dac5;"/>
                </g>
                <path id="Vector_906" data-name="Vector 906" d="M209.28,178.41c-2.92-5.16-9.97-6.42-15.08-6.65-6.65-.34-15.77,1.83-10.67,11.99,2.7,5.45,28.97,10.32,26.9-1.95-.23-1.26-.63-2.41-1.15-3.38Z" style="fill: #ff7752;"/>
                <path id="Vector_907" data-name="Vector 907" d="M99.4,178.07c-3.9-5.1-11.58-4.93-16.97-4.13-7.06,1.09-16.29,5.56-9.24,15.71,3.73,5.45,32.18,5.1,27.99-8.14-.46-1.38-1.03-2.52-1.78-3.5v.06Z" style="fill: #ff7752;"/>
                <path id="Vector_908" data-name="Vector 908" d="M174.19,132.71c12.79,1.95,27.24,2.75,43.18,3.1-6.42-10.55-33.38-12.27-43.18-3.1Z" style="fill: #261b18;"/>
                <path id="Vector_909" data-name="Vector 909" d="M146.95,182.88c-4.19.17-5.91-1.61-8.84.11-2.86,1.66,3.62,7.28,8.84,6.71,5.9-.63,10.6-5.56,9-7.28-1.84-2.01-4.3.34-9,.46Z" style="fill: #d14f2e; isolation: isolate; opacity: .4;"/>
                <path id="Vector_910" data-name="Vector 910" d="M64.42,136.44c23.17-1.78,31.03-1.55,47.03-3.55-9.52-9.98-37.74-6.37-47.03,3.55Z" style="fill: #261b18;"/>
                <path id="Vector_911" data-name="Vector 911" d="M91.37,144.75c-12.33-4.3-18.06,18.35-9.34,24.83,3.67-1.49,8.2-1.43,11.87,0,7.62-4.99,6.65-21.62-2.53-24.83Z" style="fill: #425361;"/>
                <path id="Vector_912" data-name="Vector 912" d="M89.31,152.95c-5.05.92-2.93,11.18,2.29,8.43,3.73-2.01,2.18-9.23-2.29-8.43Z" style="fill: #c3d5e3;"/>
                <path id="Vector_913" data-name="Vector 913" d="M200.62,143.72c-12.27-7.86-23.05,20.82-9.4,24.94,3.27-2.24,7.22-2.24,10.72-1.72,4.71-6.08,5.22-19.04-1.32-23.22Z" style="fill: #425361;"/>
                <path id="Vector_914" data-name="Vector 914" d="M195.75,150.66c-4.82.11-4.19,10.9,1.09,8.89,3.78-1.43,3.21-9-1.09-8.89Z" style="fill: #c3d5e3;"/>
                <path id="Vector_915" data-name="Vector 915" d="M200.97,143.09c-11.24-4.3-14.91,9-14.91,9,0,0,5.45-6.71,13.07-2.47,17.38,9.69,28.56-2.06,28.56-2.06-13.76,4.59-20.7-2.18-26.72-4.47Z" style="fill: #121b21;"/>
                <path id="Vector_916" data-name="Vector 916" d="M83.23,145.55c-4.42,2.41-14.74,9.46-28.62,5.79,0,0,13.42,11.12,29.94.4,7.23-4.7,13.65.74,13.65.74,0,0-3.39-13.13-14.97-6.88v-.06Z" style="fill: #121b21;"/>
              </g>
            </g>
          </g>
        </g>
      </g>
    </g>
  </g>
</svg>