<?xml version="1.0" encoding="UTF-8"?>
<svg id="Layer_2" data-name="Layer 2" xmlns="http://www.w3.org/2000/svg" viewBox="0 0 235.79 335.84">
  <g id="Layer_1-2" data-name="Layer 1">
    <g id="Frame">
      <g id="Group">
        <g id="avatars">
          <g id="Group_2" data-name="Group 2">
            <g id="Group_3" data-name="Group 3">
              <path id="Vector_2" data-name="Vector 2" d="M161.67,277.46l-11.3,17.26c2.24,2.01,4.02,13.13,5.05,19.78,1.03,6.48,2.18,13.93,4.36,21.22h21.85c-2.47-5.68-4.13-13.7-5.8-24.43-2.18-14.16-4.3-27.47-14.16-33.89v.06Z" style="fill: #ca3564;"/>
              <path id="Vector_3" data-name="Vector 3" d="M89.35,294.78l-11.3-17.26c-9.86,6.36-11.93,19.73-14.16,33.89-1.67,10.72-3.33,18.75-5.79,24.43h21.85c2.12-7.28,3.32-14.8,4.3-21.22,1.03-6.65,2.75-17.78,5.04-19.78l.06-.06Z" style="fill: #ca3564;"/>
              <g id="Group_4" data-name="Group 4">
                <path id="Vector_4" data-name="Vector 4" d="M160.23,314.45c8.61-26.04,9.75-36.7-8.65-41.86-16.23-4.59-46.11-6.08-63.83.4-17.15,6.31-14.11,24.37-9.07,39.28,2.64,7.8,5.05,15.88,6.31,23.51h70.14c.8-6.37,2.41-13.42,5.05-21.33h.05Z" style="fill: #ca3564;"/>
                <path id="Vector_5" data-name="Vector 5" d="M140.39,307.74c-13.3,3.61-29.3,1.49-42.72-1.78-7.75-1.89-12.33,5.56-10.1,12.1,2.93,8.66,19.04,11.35,33.09,11.58,27.76.4,38.37-8.14,33.95-18.81-1.14-2.87-7.05-4.99-14.22-3.04v-.06Z" style="fill: #fff; isolation: isolate; opacity: .2;"/>
              </g>
              <g id="Group_5" data-name="Group 5">
                <path id="Vector_6" data-name="Vector 6" d="M25.18,70.22C14.68,98.38,7.86,127.17,2.93,156.7c-5.11,30.74-6.03,88.19,18.52,103.62,11.41,7.17,33.26,9.46,46.57,11.01,33.49,3.9,72.31-2.07,105.86-4.7,12.1-.98,37.4.46,45.25-9.35,22.71-28.56,18.47-101.38,9.18-144.56C198.77-24.45,64.06-33.74,25.23,70.22h-.05Z" style="fill: #e0e0e0;"/>
                <path id="Vector_7" data-name="Vector 7" d="M49.44,219.26c-20.65,51.55,40.89,84.64,76.67,84.64,44.62,0,80.18-47.6,73.81-71.74-14.16-53.62-129.84-64.46-150.48-12.96v.06Z" style="fill: #e0e0e0;"/>
                <path id="Vector_8" data-name="Vector 8" d="M108.96,57.49c-45.07,8.37-76.84,70.82-68.64,129.54,6.13,43.52,47.94,86.42,91.81,86.48,46.46,0,82.93-68.18,76.28-119.96-7.57-58.78-36.36-107.81-99.45-96.05Z" style="isolation: isolate; opacity: .1;"/>
                <path id="Vector_9" data-name="Vector 9" d="M109.6,49.06c-43.48,8.43-74.27,70.93-66.36,129.6,5.85,43.52,46.17,86.42,88.55,86.42,44.85,0,80.06-68.3,73.69-120.02-7.22-58.78-34.98-107.75-95.94-95.99h.06Z" style="fill: #ffb06b;"/>
                <path id="Vector_10" data-name="Vector 10" d="M117.39,20.51c-52.13-.75-92.21,59.24-80.23,125.7,28.51-75.06,138.5-82.75,172.51-8.32-1.15-71.39-25.52-116.41-92.28-117.38Z" style="fill: #e0e0e0;"/>
                <path id="Vector_11" data-name="Vector 11" d="M112.92,12.19c-56.43,2.06-84.93,54.82-87.11,125.7,30.97-75.06,155.59-80.34,192.52-5.91-5.1-67.89-42.15-122.09-105.41-119.79Z" style="fill: #f2f2f2;"/>
                <path id="Vector_12" data-name="Vector 12" d="M222.46,202.06c-9.75,33.03-29.71,57.86-29.71,57.86,19.56-4.64,24.6-23.68,29.71-57.86Z" style="isolation: isolate; opacity: .1;"/>
                <path id="Vector_13" data-name="Vector 13" d="M53.11,262.04s-19.9-24.83-29.71-57.86c5.05,34.18,10.09,53.21,29.71,57.86Z" style="isolation: isolate; opacity: .1;"/>
              </g>
              <g id="Group_6" data-name="Group 6">
                <path id="Vector_14" data-name="Vector 14" d="M185.64,163.41c-6.71-1.15-16.06-.11-11.53,10.44,2.41,5.62,28.68,13.59,27.36,1.32-.12-1.26-.46-2.41-.98-3.44-2.63-5.39-9.69-7.51-14.85-8.37v.06Z" style="fill: #ffc48f;"/>
                <path id="Vector_15" data-name="Vector 15" d="M95.95,166.85c-4.99-3.84-12.62-2.47-17.84-.8-6.82,2.12-15.08,7.51-5.91,15.25,4.94,4.13,33.27-.75,26.27-11.64-.75-1.09-1.61-2.01-2.52-2.75v-.06Z" style="fill: #ffc48f;"/>
                <path id="Vector_16" data-name="Vector 16" d="M140.45,173.38c-5.62-.4-5.51-3.38-9.52-1.09-4.07,2.29-1.03,11.12,8.89,11.58,9.92.4,14.57-6.88,12.67-9.92-2.23-3.5-5.79-.11-11.98-.57h-.06Z" style="fill: #b54319; isolation: isolate; opacity: .5;"/>
                <path id="Vector_17" data-name="Vector 17" d="M139.07,157.04c-4.58.06-11.41,15.54-9.12,17.89,5.62,5.74,18.18,3.04,21.97-.86,1.49-1.55-7.69-17.15-12.85-17.03Z" style="fill: #ffc48f;"/>
                <path id="Vector_18" data-name="Vector 18" d="M191.55,139.55c-15.49-6.59-29.59,12.5-18.47,22.42,2.24-2.41,14.4-6.37,21.85-.69,6.37-4.53,4.88-18.18-3.38-21.73Z" style="fill: #261b18;"/>
                <path id="Vector_19" data-name="Vector 19" d="M193.27,150.28c-4.25,1.32-2.24,9.46,2.12,6.59,3.15-2.06,1.66-7.8-2.12-6.59Z" style="fill: #cfc4c4;"/>
                <path id="Vector_20" data-name="Vector 20" d="M178.76,141.85c-7.23,2.24-3.79,16.11,3.55,11.24,5.34-3.5,2.81-13.25-3.55-11.24Z" style="fill: #cfc4c4;"/>
                <path id="Vector_21" data-name="Vector 21" d="M76.22,140.81c-8.2,3.78-9.24,17.43-2.75,21.85,7.34-5.85,19.55-2.29,21.85.06,10.83-10.26-3.85-28.96-19.1-21.9Z" style="fill: #261b18;"/>
                <path id="Vector_22" data-name="Vector 22" d="M74.84,151.59c-3.78-1.09-5.1,4.7-1.89,6.65,4.42,2.75,6.19-5.45,1.89-6.65Z" style="fill: #cfc4c4;"/>
                <path id="Vector_23" data-name="Vector 23" d="M89.06,142.71c-6.48-1.78-8.66,7.97-3.26,11.35,7.51,4.65,10.49-9.29,3.26-11.35Z" style="fill: #cfc4c4;"/>
                <path id="Vector_24" data-name="Vector 24" d="M97.21,118.68c-7.69.4-15.03,1.03-22.48,3.44-4.65,1.49-10.21,4.19-13.65,7.45-1.15,1.09-2.58,2.93-2.35,4.42,1.26.06,2.12-.8,3.27-1.2,5.62-2.18,11.69-2.93,17.6-3.56,4.59-.52,9.23-.63,13.82-1.26,3.1-.4,7.34-.23,8.78-3.38,1.78-4.01-.81-6.08-4.93-5.85l-.06-.06Z" style="fill: #261b18;"/>
                <path id="Vector_25" data-name="Vector 25" d="M190.46,120.86c-7.29-2.18-14.4-2.69-21.91-2.98-4.07-.17-6.59,1.89-4.87,5.68,1.31,3.04,5.5,2.75,8.54,3.15,4.47.57,9,.57,13.48,1.03,5.79.57,11.7,1.21,17.2,3.21,1.09.4,1.95,1.2,3.16,1.15.23-1.43-1.15-3.21-2.24-4.24-3.38-3.04-8.77-5.56-13.3-6.94l-.06-.06Z" style="fill: #2b221c;"/>
                <path id="Vector_26" data-name="Vector 26" d="M188.45,136.91c-14.28-2.58-18.29,11.47-18.29,11.47,0,0,6.94-8.89,16.17-4.93,21.05,9,32.17-5.96,32.17-5.96-15.02,7-22.71.74-30.05-.57Z" style="fill: #121b21;"/>
                <path id="Vector_27" data-name="Vector 27" d="M79.83,138.46c-7.28,1.43-14.91,7.74-30.05.92,0,0,11.3,14.79,32.23,5.62,9.23-4.07,16.23,4.76,16.23,4.76,0,0-4.19-13.99-18.41-11.24v-.06Z" style="fill: #121b21;"/>
                <g id="Group_7" data-name="Group 7" style="opacity: .5;">
                  <path id="Vector_28" data-name="Vector 28" d="M76.73,193.17c6.2,11.75,21.34,6.08,14.97-5.96-2.52,6.02-9.63,8.49-14.97,5.96Z" style="fill: #c4170e;"/>
                  <path id="Vector_29" data-name="Vector 29" d="M176.81,185.2c-3.33,12.44,13.07,16.74,16.29,4.59-4.65,2.98-12.28,1.15-16.29-4.59Z" style="fill: #c4170e;"/>
                  <path id="Vector_30" data-name="Vector 30" d="M183.92,191.56c-1.89-.63-3.9.23-4.47,1.84-6.02,16.8-24.03,27.87-45.02,27.7-20.19-.11-36.36-10.67-42.96-24.54-.8-1.66-2.92-2.52-4.7-1.89-1.83.57-2.69,2.41-1.89,4.07,7.57,15.94,25.58,27.98,48.06,28.73h1.89c24.14.17,44.56-12.44,51.5-31.82.57-1.61-.46-3.44-2.35-4.07h-.06Z" style="fill: #c4170e;"/>
                </g>
              </g>
            </g>
          </g>
        </g>
      </g>
    </g>
  </g>
</svg>